<?xml version="1.0" standalone="no"?>
<!DOCTYPE svg PUBLIC "-//W3C//DTD SVG 20010904//EN"
 "http://www.w3.org/TR/2001/REC-SVG-20010904/DTD/svg10.dtd">
<svg version="1.0" xmlns="http://www.w3.org/2000/svg"
 width="518.000000pt" height="516.000000pt" viewBox="0 0 518.000000 516.000000"
 preserveAspectRatio="xMidYMid meet">

<g transform="translate(0.000000,516.000000) scale(0.100000,-0.100000)"
fill="#000000" stroke="none">
<path d="M2425 5139 c-192 -10 -255 -19 -445 -65 -275 -67 -528 -170 -725
-296 -208 -133 -253 -166 -343 -245 -100 -87 -141 -129 -266 -268 -132 -147
-235 -294 -343 -490 -95 -173 -108 -202 -158 -350 -126 -379 -159 -685 -120
-1119 26 -280 105 -587 199 -775 59 -116 206 -352 265 -425 31 -39 77 -98 101
-131 68 -90 322 -342 440 -436 234 -186 583 -371 835 -443 136 -39 332 -70
547 -87 114 -9 178 -9 285 0 194 17 390 40 443 52 80 18 397 128 492 170 390
175 712 410 946 689 70 84 242 320 242 333 0 5 13 28 30 51 16 24 30 50 32 57
2 8 5 16 8 19 13 13 40 70 33 70 -4 0 -3 4 2 8 15 11 47 72 38 72 -4 0 -3 4 4
8 6 4 13 16 15 27 1 11 6 22 10 25 4 3 9 15 11 25 2 11 8 29 13 40 6 11 10 27
9 35 0 8 2 17 6 20 4 3 9 14 11 25 1 11 6 22 9 25 4 3 9 19 10 35 2 17 7 33
12 36 4 3 9 19 10 35 1 16 7 32 12 36 6 5 4 8 -5 8 -12 0 -12 2 -2 8 7 5 14
22 15 38 1 16 7 32 12 36 6 5 4 8 -5 8 -12 0 -13 2 -1 9 8 5 14 28 15 57 0 27
6 52 11 56 6 5 4 8 -5 8 -11 0 -12 2 -2 8 7 5 14 31 15 58 2 27 6 54 9 59 14
24 23 155 23 350 0 235 -7 324 -27 336 -10 7 -10 9 2 9 10 0 11 3 4 8 -6 4
-10 20 -9 35 1 17 -4 31 -12 34 -12 5 -12 7 -1 14 10 7 10 9 -2 9 -13 0 -13 1
0 10 8 5 10 10 5 10 -6 0 -11 14 -11 31 -1 17 -8 35 -15 40 -12 7 -11 9 1 9
10 0 11 3 4 8 -6 4 -10 15 -8 25 1 10 -4 21 -13 24 -12 5 -12 7 -1 14 7 5 8 9
3 9 -6 0 -11 14 -11 31 -1 17 -8 35 -15 40 -12 7 -11 9 1 9 9 0 11 3 5 8 -5 4
-12 16 -13 27 -2 11 -9 23 -15 27 -8 5 -7 8 3 8 9 0 11 3 5 8 -5 4 -12 16 -13
27 -2 11 -7 22 -10 25 -4 3 -9 14 -10 25 -2 11 -7 22 -10 25 -4 3 -9 14 -10
25 -2 11 -7 22 -10 25 -4 3 -9 14 -10 25 -2 11 -7 22 -10 25 -4 3 -9 14 -10
25 -2 11 -7 22 -10 25 -4 3 -9 14 -10 25 -2 11 -9 23 -15 27 -7 4 -7 8 -2 8 6
0 3 6 -5 13 -8 7 -17 21 -18 32 -2 11 -9 23 -15 27 -7 4 -7 8 -2 8 6 0 3 6 -5
13 -8 7 -16 18 -18 26 -2 8 -12 27 -23 42 -10 15 -19 32 -19 38 0 6 -4 11 -10
11 -5 0 -10 7 -10 15 0 8 -5 15 -11 15 -5 0 -8 4 -5 9 5 7 -53 94 -74 111 -3
3 -26 33 -49 68 -24 34 -48 62 -52 62 -5 0 -9 4 -9 10 0 12 -18 35 -99 124
-89 97 -127 133 -237 223 -21 17 -54 45 -73 62 -19 17 -43 33 -53 37 -10 3
-18 9 -18 14 0 20 -286 191 -404 241 -39 16 -89 38 -111 48 -79 37 -178 72
-248 91 -161 41 -390 83 -522 96 -153 15 -175 15 -410 3z m350 -149 c340 -22
728 -135 1035 -302 200 -109 508 -342 476 -360 -7 -4 -45 -13 -82 -18 -38 -6
-86 -14 -106 -17 -36 -5 -52 -27 -26 -35 6 -2 12 -13 13 -24 8 -80 31 -125 80
-163 25 -18 45 -37 45 -42 0 -5 7 -9 15 -9 8 0 18 -12 21 -26 9 -35 -2 -177
-21 -284 -8 -47 -29 -218 -45 -380 -16 -162 -33 -315 -36 -339 l-7 -43 -66 4
c-72 5 -140 34 -165 70 -13 19 -16 56 -16 215 0 124 -4 194 -11 198 -5 4 -106
-87 -222 -201 -117 -115 -315 -311 -442 -435 -126 -125 -246 -235 -265 -245
-51 -26 -165 -26 -207 1 -91 58 -436 389 -487 468 l-18 27 -357 -353 c-196
-194 -466 -460 -601 -591 -227 -221 -299 -293 -543 -543 l-90 -91 34 -54 c53
-83 180 -239 292 -358 98 -105 219 -210 240 -210 7 0 8 78 3 238 -7 259 -2
304 39 340 29 25 109 31 148 11 57 -29 56 -27 57 -379 1 -179 4 -341 8 -361 7
-36 12 -39 159 -115 84 -43 156 -74 160 -70 5 4 9 309 10 678 2 747 -2 707 72
729 51 15 116 -5 145 -44 21 -28 21 -34 21 -743 0 -531 3 -717 12 -722 15 -9
302 -56 308 -50 7 7 11 1389 5 1646 l-5 214 33 29 c52 47 123 37 182 -26 l25
-27 3 -920 3 -921 131 7 c72 3 148 9 169 12 l39 7 0 749 0 750 28 28 c55 54
150 48 196 -13 21 -28 21 -32 20 -738 0 -496 3 -709 10 -709 6 0 80 24 164 52
l154 53 -3 970 c-2 750 0 975 9 992 37 67 176 68 214 1 10 -18 14 -200 18
-926 l5 -902 76 52 c42 29 114 80 160 112 l84 60 -2 485 c0 281 3 502 8 524
24 93 178 105 224 17 13 -24 15 -88 15 -397 l1 -368 60 64 c77 80 208 277 265
397 140 292 215 675 200 1024 -11 258 -30 376 -103 610 -46 149 -72 210 -149
351 -83 149 -87 164 -69 251 8 38 15 87 15 108 0 21 4 41 9 44 25 16 219 -311
308 -519 43 -101 107 -316 132 -448 30 -158 53 -419 46 -522 -12 -173 -36
-391 -51 -470 -39 -206 -127 -451 -218 -610 -269 -468 -570 -761 -1061 -1035
-145 -81 -453 -190 -665 -235 -114 -25 -150 -28 -400 -32 -303 -6 -437 6 -625
53 -184 45 -279 83 -499 199 -399 210 -608 388 -913 775 -104 132 -151 207
-227 358 -210 419 -281 955 -201 1505 23 157 98 394 181 576 137 297 463 692
747 901 106 79 333 210 457 265 289 128 647 205 995 213 33 1 132 -3 220 -8z"/>
<path d="M2658 4793 c12 -2 32 -2 45 0 12 2 2 4 -23 4 -25 0 -35 -2 -22 -4z"/>
<path d="M3847 4419 c7 -7 15 -10 18 -7 3 3 -2 9 -12 12 -14 6 -15 5 -6 -5z"/>
<path d="M3520 4275 c0 -13 -24 -15 -160 -15 -152 0 -160 -1 -160 -19 0 -16
-8 -20 -37 -23 -35 -3 -38 -6 -41 -35 -3 -29 -7 -32 -40 -35 -35 -3 -38 -6
-46 -45 -10 -43 -17 -48 -73 -46 -7 1 -13 -5 -13 -13 0 -8 -4 -14 -10 -14 -5
0 -10 7 -10 15 0 10 -9 15 -27 14 -16 0 -22 -3 -15 -6 14 -6 16 -43 2 -43 -5
0 -10 -7 -10 -15 0 -12 -13 -15 -60 -15 -47 0 -60 3 -60 15 0 8 -4 15 -10 15
-5 0 -7 -7 -4 -15 4 -10 0 -15 -13 -15 -17 0 -19 -6 -16 -40 3 -31 1 -40 -12
-40 -11 0 -15 11 -15 40 0 29 -4 40 -15 40 -10 0 -15 -11 -15 -35 0 -31 -3
-35 -25 -35 -14 0 -25 4 -25 9 0 5 -9 11 -20 14 -16 4 -20 0 -20 -20 0 -16 -7
-27 -20 -30 -20 -5 -28 -23 -10 -23 23 0 7 -21 -20 -26 -28 -6 -30 -10 -30
-50 l0 -44 -57 0 c-89 0 -99 -5 -97 -46 3 -56 14 -104 24 -104 6 0 10 -13 10
-30 0 -16 5 -30 10 -30 6 0 10 -9 10 -20 0 -15 7 -20 25 -20 22 0 25 -4 25
-35 0 -19 -5 -35 -11 -35 -5 0 -7 5 -4 10 3 6 -1 10 -9 10 -9 0 -16 -3 -16 -6
0 -10 50 -54 61 -54 5 0 9 -4 9 -10 0 -5 -4 -10 -10 -10 -5 0 -10 -4 -10 -10
0 -5 6 -10 14 -10 8 0 17 -11 20 -25 4 -16 11 -22 21 -19 10 4 15 0 15 -16 0
-17 -4 -20 -22 -16 -23 6 -23 6 -2 -5 23 -12 44 -49 44 -77 0 -9 21 -37 48
-61 104 -98 115 -106 109 -88 -4 11 -3 16 4 12 6 -4 8 -13 5 -21 -3 -8 18 -35
50 -66 66 -63 86 -76 92 -60 2 7 9 12 16 12 12 0 66 56 66 69 0 4 12 13 26 19
15 7 22 17 18 24 -4 7 -3 8 4 4 12 -7 332 307 332 326 0 6 3 9 6 5 7 -7 154
132 154 145 0 5 -5 6 -10 3 -7 -4 -9 2 -5 18 5 18 1 31 -14 46 -12 12 -21 25
-21 30 0 5 -18 12 -40 16 -25 4 -40 12 -40 21 0 8 -4 14 -10 14 -5 0 -10 -7
-10 -15 0 -9 -9 -15 -25 -15 -16 0 -25 -6 -25 -15 0 -8 -7 -15 -15 -15 -8 0
-15 7 -15 15 0 8 -9 15 -20 15 -13 0 -20 7 -20 20 0 13 7 20 20 20 13 0 20 7
20 20 0 11 -4 20 -10 20 -5 0 -10 9 -10 20 0 11 -4 20 -10 20 -5 0 -10 9 -10
20 0 11 5 20 10 20 6 0 10 9 10 20 0 11 -4 20 -10 20 -5 0 -10 7 -10 15 0 8
-4 15 -10 15 -15 0 -12 47 3 53 9 4 8 8 -3 16 -11 8 -12 13 -3 19 6 4 17 21
24 37 l12 30 7 -43 c3 -23 12 -48 19 -55 11 -10 11 -8 2 10 -17 33 -14 64 8
70 13 3 18 10 14 21 -5 12 -2 14 11 9 55 -21 116 -19 116 4 0 6 7 17 15 25 12
12 22 13 52 5 42 -12 53 -4 53 42 0 22 -4 27 -25 27 -14 0 -25 -4 -25 -10 0
-5 -7 -10 -15 -10 -8 0 -15 9 -15 20 0 18 7 20 75 20 43 0 75 4 75 10 0 6 -14
10 -31 10 -17 0 -28 4 -24 10 3 6 37 10 76 10 62 0 69 2 69 20 0 11 -6 20 -14
20 -9 0 -12 7 -9 20 5 17 0 20 -26 20 -21 0 -31 5 -31 15 0 11 -11 15 -40 15
-29 0 -40 -4 -40 -15z m80 -65 c0 -5 -9 -10 -20 -10 -11 0 -20 5 -20 10 0 6 9
10 20 10 11 0 20 -4 20 -10z m-225 -190 c3 -5 1 -10 -4 -10 -6 0 -11 5 -11 10
0 6 2 10 4 10 3 0 8 -4 11 -10z m-775 -180 c0 -5 -7 -10 -15 -10 -8 0 -15 5
-15 10 0 6 7 10 15 10 8 0 15 -4 15 -10z m-3 -686 c-3 -3 -12 -4 -19 -1 -8 3
-5 6 6 6 11 1 17 -2 13 -5z m68 -75 c11 -17 -1 -21 -15 -4 -8 9 -8 15 -2 15 6
0 14 -5 17 -11z"/>
<path d="M3557 4057 c-5 -13 -1 -16 18 -15 14 1 25 6 25 11 0 5 -6 7 -14 4 -8
-3 -16 -1 -19 6 -2 6 -6 4 -10 -6z"/>
<path d="M3488 4003 c12 -2 30 -2 40 0 9 3 -1 5 -23 4 -22 0 -30 -2 -17 -4z"/>
<path d="M2601 3964 c0 -11 3 -14 6 -6 3 7 2 16 -1 19 -3 4 -6 -2 -5 -13z"/>
<path d="M3425 3710 c3 -5 14 -10 23 -10 15 0 15 2 2 10 -20 13 -33 13 -25 0z"/>
<path d="M1967 3654 c-14 -15 -6 -34 14 -34 14 0 19 5 17 17 -3 18 -20 27 -31
17z"/>
<path d="M1970 3590 c0 -5 -11 -10 -25 -10 -22 0 -25 -4 -25 -34 l0 -34 -77
-8 -78 -9 -3 -32 c-2 -24 -8 -33 -21 -33 -10 0 -39 -3 -65 -6 -37 -6 -46 -4
-46 9 0 8 -7 17 -15 21 -9 3 -15 0 -15 -9 0 -8 6 -16 13 -17 6 0 -10 -4 -38
-7 l-50 -6 -3 -77 c-3 -70 -5 -78 -22 -78 -13 0 -20 -7 -20 -20 0 -18 -7 -20
-56 -20 -47 0 -57 3 -61 20 -4 16 -14 20 -44 20 -32 0 -39 -3 -39 -20 0 -11
-7 -20 -15 -20 -9 0 -12 -6 -9 -15 5 -11 -1 -15 -25 -15 -29 0 -31 3 -31 35 0
31 -3 35 -25 35 -26 0 -35 24 -12 33 6 3 0 6 -15 6 -27 1 -28 -1 -28 -51 l0
-53 -40 -2 c-38 -2 -54 10 -27 20 10 4 9 6 0 6 -7 1 -13 10 -13 21 0 13 -7 20
-20 20 -13 0 -20 -7 -20 -20 0 -13 -7 -20 -20 -20 -13 0 -20 -7 -20 -20 0 -13
-7 -20 -20 -20 -17 0 -20 -7 -20 -40 l0 -40 -40 0 c-29 0 -40 -4 -40 -15 0
-18 26 -20 33 -2 3 6 6 -5 6 -25 1 -27 -3 -38 -13 -38 -8 0 -17 6 -19 13 -4
10 -6 10 -6 0 -1 -10 -28 -13 -101 -13 -93 0 -100 1 -100 20 0 17 -7 20 -50
20 -42 0 -50 3 -50 19 0 11 -9 21 -24 25 -26 6 -36 31 -36 89 0 34 -2 37 -15
23 -8 -8 -15 -19 -15 -24 0 -6 -6 -12 -13 -15 -21 -8 -9 42 19 79 13 17 23 40
23 50 1 53 19 136 30 143 9 6 10 11 2 15 -13 8 -32 -29 -75 -146 -49 -137
-103 -365 -93 -392 3 -8 2 -16 -3 -18 -16 -5 -23 -333 -11 -493 17 -217 69
-467 123 -597 20 -47 38 -55 38 -17 0 11 4 18 8 15 11 -6 53 40 45 48 -4 3 1
6 10 6 10 0 17 5 17 11 0 6 11 20 25 31 14 11 22 24 19 30 -4 6 -3 8 3 5 11
-7 17 -2 397 367 142 138 313 303 380 366 230 218 431 413 506 489 88 91 226
213 257 230 12 6 40 11 62 11 23 0 41 4 41 9 0 5 3 16 6 25 4 11 1 16 -10 16
-9 0 -16 -7 -16 -15 0 -8 -4 -15 -10 -15 -5 0 -10 5 -10 11 0 5 -4 7 -10 4 -6
-4 -10 13 -10 44 l0 51 -40 0 c-29 0 -40 4 -40 15 0 8 -8 15 -17 14 -11 0 -13
-3 -5 -6 6 -2 12 -9 12 -14 0 -14 -27 -10 -33 5 -3 8 -19 17 -36 21 -17 4 -33
11 -36 16 -8 12 -35 12 -35 -1z m-1576 -629 c17 -19 17 -19 -1 -17 -10 2 -19
10 -21 19 -4 22 1 21 22 -2z"/>
<path d="M531 3539 c-12 -19 -21 -41 -20 -49 0 -8 5 -4 10 10 6 13 17 33 26
42 9 10 13 21 10 24 -3 4 -15 -9 -26 -27z"/>
<path d="M2280 3515 c0 -14 -4 -25 -10 -25 -5 0 -10 6 -10 13 0 8 -4 7 -10 -3
-12 -19 15 -28 80 -28 25 0 37 2 27 5 -25 7 -57 35 -57 50 0 7 -4 13 -10 13
-5 0 -10 -11 -10 -25z"/>
<path d="M2270 3406 c0 -2 7 -6 15 -10 8 -3 15 -1 15 4 0 6 -7 10 -15 10 -8 0
-15 -2 -15 -4z"/>
<path d="M1368 3333 c7 -3 16 -2 19 1 4 3 -2 6 -13 5 -11 0 -14 -3 -6 -6z"/>
<path d="M480 3256 c0 -8 7 -16 15 -20 9 -3 15 0 15 8 0 8 -7 16 -15 20 -9 3
-15 0 -15 -8z"/>
</g>
</svg>
